<?xml version="1.0" encoding="utf-8"?>
<!-- Designed by Vexels.com - 2017 All Rights Reserved - https://vexels.com/terms-and-conditions/  -->

<svg version="1.1" id="Layer_1" xmlns="http://www.w3.org/2000/svg" xmlns:xlink="http://www.w3.org/1999/xlink" x="0px" y="0px"
	 width="1200px" height="1200px" viewBox="0 0 1200 1200" enable-background="new 0 0 1200 1200" xml:space="preserve">
<path fill="#1B1C21" d="M882.885,279.341c-6.426,1.607-14.466,2.41-28.924,7.229c-18.471,5.626-14.451-8.029-13.652-8.832
	c9.642-12.856,6.426-14.462,5.623-15.269c-9.639-3.213-12.849,12.053-19.282,17.675c-7.226,5.623-12.845,13.655-13.652,19.281
	c-0.807,7.233-5.626,9.639-8.036,11.242c-12.049,0.803-12.049,14.462-16.872,26.514c-4.016,12.848-16.868,17.675-21.688,24.102
	c-4.016,6.422-6.429,4.02-8.832,2.406c-0.806-17.676-14.465-48.998-16.875-59.444c-0.8-29.724-8.832-38.56-11.242-37.756
	c-19.278-12.049-76.319-37.756-82.746-45.789c-4.494-5.062-8.944-8.112-11.234-9.512c1.169-4.776,2.214-10.051,2.823-11.882
	c26.547-15.79,18.124-64.723,18.985-68.182c1.111-5.8,1.661-11.148,1.776-16.108h6.48c-1.603-2.262-3.021-4.737-4.005-7.685
	c5.673,0,11.354,0,17.027,5.681c-5.673-39.721-28.269-67.448-62.418-62.422c-8.723,1.284-21.489,2.124-32.944,8.148l-5.481-1.918
	c-1.133,2.471-2.204,4.903-3.097,7.266l-7.36-2.58c0.851,2.949,1.386,6.075,1.433,9.462c-0.159,0.217-0.322,0.445-0.482,0.665
	c-6.27-2.193-12.486-4.559-16.557-13.033c-4.888,24.8-3.148,47.649,5.402,64.991c0.021,0.492,0.025,0.948,0.058,1.441
	c-4.277-4.208-6.849,0.058-6.849,0.919c-6.918,24.796-0.738,33.769,5.156,37.518c0.004,3.651,0.25,7.392,0.919,11.26
	c1.987-2.793,4.414-4.349,7.041-5.395c1.034,2.771,1.91,5.471,2.645,8.098c-5.84,0.723,2.703,8.245-8.774,7.837
	c6.705,2.931,9.216,0.84,11.025,1.986c1.02,6.351,1.151,11.995,0.67,16.745c-1.122,2.75-2.573,4.649-4.179,5.452
	c-22.491,17.675-32.933,29.724-98.807,50.612c-12.052,8.033-10.445,24.905-12.852,40.162
	c-15.269,16.872-10.442,31.331-12.052,40.973c-9.639,7.229-12.848,19.278-18.479,23.298c-8.832,4.02-7.229-1.607-9.642-4.016
	c-13.655-32.937-25.697-49.006-27.311-53.022c-0.8-4.013-4.82-4.816-5.619-5.623c0.8-13.655-5.63-31.33-6.43-33.74
	c-15.258-17.675-16.068-38.559-16.871-39.363c-8.84-0.807-6.43,12.852-3.209,16.868c6.426,16.868-3.22,20.084-4.816,20.084
	c-10.446-0.803-40.973-15.265-51.423-17.675c-12.852-3.217-13.652,0.803-13.652,5.626c-7.229,0-3.22,4.82-2.41,5.623
	c4.016,14.462,72.3,59.448,73.1,60.251c-8.029,4.82-21.688,27.31-24.098,33.733c4.016,8.84,38.559,57.042,45.789,67.488
	c0,4.819,7.233,14.462,20.082,26.507c23.298,30.531,48.199-1.607,53.018-3.213c17.675-17.675,37.76-54.625,37.76-50.609
	c0,9.639,4.02,64.264,2.41,85.955c-25.708,70.694-8.029,204.048-4.02,212.079c10.446,33.737,17.678,175.927,17.678,216.899
	c-4.019,38.557,9.639,84.349,12.852,116.482c2.41,30.531,23.301,61.854,28.917,70.693c-4.016,5.619-0.8,25.708-2.407,32.134
	c-4.823,32.133,56.235,20.884,61.858,18.474c8.033-5.627,0-19.278-4.816-20.081c8.025-9.639-4.02-36.151-6.433-40.17
	c6.426-15.266,10.442-30.528,9.643-38.557c-0.807-16.875-13.655-66.677-16.068-78.729c-0.803-23.294,1.606-98.807,1.606-135.764
	c8.033-47.399,3.217-91.578,4.049-102.309c0.586-7.533,4.968-32.293,7.454-36.019c0,0,2.96,8.191,6.169,13.814
	c8.84,40.969,31.33,117.289,40.166,142.19c0,65.87,60.251,231.361,65.075,245.819c-12.049,32.134,18.478,29.724,20.888,30.528
	c30.523-2.413,31.326,11.245,36.949,16.868c47.395,11.246,65.878-0.8,66.685-3.209c0.796-12.052-16.073-30.531-19.282-33.74
	c-16.213-5.89-34.551-20.088-38.559-28.92c6.419-47.399-18.479-36.151-18.479-58.645c0.797-45.789-18.482-187.979-22.491-195.208
	c-2.41-17.675-12.053-98.007-15.269-138.176c-2.413-55.428-16.065-114.876-18.474-128.531c2.41-39.363-16.869-82.746-16.073-89.974
	c7.233-10.446,12.056-48.199,12.056-46.588c8.828,31.33,36.953,40.969,52.219,46.588c24.101,0,48.195-38.56,49.801-47.395
	c2.41-11.246,40.969-51.412,46.595-58.641c8.84-9.643-10.449-33.74-11.249-36.153c0.8-6.422,64.267-36.953,71.5-41.776
	c12.045-7.229,12.852-13.655,12.852-13.655C911.002,265.685,889.311,276.931,882.885,279.341z"/>
</svg>
